<svg width="220" height="220" viewBox="0 0 220 220" fill="none" xmlns="http://www.w3.org/2000/svg">
<path d="M138.376 13.636C138.175 13.9655 138.063 14.8991 138.063 16.6566C138.063 19.073 138.108 19.2652 138.644 19.9517C139.18 20.6107 139.448 20.6931 141.995 20.9128C150.239 21.6817 155.668 23.4116 162.415 27.4757C170.994 32.6655 177.987 40.2444 183.305 50.1573C186.611 56.3083 189.56 64.9032 190.655 71.5484C191.459 76.4362 191.638 79.4293 191.504 85.745C191.415 90.1661 191.459 91.8136 191.66 92.1431C192.062 92.8022 196.888 93.2965 197.357 92.7198C197.894 92.0333 198.184 84.4819 197.871 79.3744C197.268 69.5988 195.525 61.8277 191.995 53.2877C188.979 45.956 185.695 40.3268 181.182 34.7525C174.636 26.6519 167.8 21.2423 159.377 17.5078C154.73 15.4209 150.686 14.3225 145.123 13.6085C140.789 13.0593 138.756 13.0593 138.376 13.636Z" fill="#EB8153"/>
<path d="M141.37 31.8967C140.923 32.5557 141.146 36.4275 141.682 37.3062C142.174 38.1026 142.218 38.13 146.441 38.8714C153.121 40.0522 160.427 44.3908 165.364 50.1024C167.464 52.5463 169.967 56.171 171.642 59.2465C174.502 64.4638 176.535 71.5484 176.96 77.8916L177.116 80.1433L177.92 80.3081C178.367 80.3904 179.551 80.4728 180.579 80.4728H182.411V77.2326C182.411 73.3608 182.165 71.4111 181.294 68.061C179.06 59.5486 173.653 49.8004 168.001 43.9789C162.438 38.2948 155.043 33.8189 148.675 32.2811C145.927 31.6221 141.705 31.4024 141.37 31.8967Z" fill="#EB8153"/>
<path d="M121.731 38.0749C120.279 38.5143 117.687 40.2443 117.285 41.068C117.107 41.4525 117.196 41.6447 117.71 42.139C119.564 43.7865 121.083 45.5165 122.089 47.0542C123.608 49.3883 125.373 53.7819 125.775 56.2532C126.133 58.3402 126.222 61.9648 125.954 63.8321C125.82 64.8756 125.82 64.8756 124.926 64.7383C124.435 64.6559 123.965 64.4362 123.876 64.2714C123.787 64.1067 123.653 62.7612 123.586 61.3058C123.34 56.9672 122.446 53.8642 120.435 50.624C116.28 43.8689 109.198 41.5349 103.679 45.1046C101.78 46.3403 99.7696 48.8666 98.9206 51.0908C97.9823 53.5347 97.6471 55.4569 97.6695 58.3676C97.7142 63.4202 99.4791 67.5666 103.031 70.8618C103.813 71.6032 104.372 72.2622 104.283 72.3171C104.193 72.3995 103.501 72.6741 102.763 72.9212C100.485 73.7176 94.4076 73.7725 89.6936 73.0585C81.6506 71.8778 77.0929 72.07 71.2841 73.8823C55.1759 78.9074 42.5306 96.1246 39.224 117.543C38.1293 124.655 38.0176 134.156 38.9559 140.856L39.4474 144.289L37.5931 146.348C31.4939 153.186 28.5224 158.238 27.0032 164.417C26.4894 166.476 26.4 167.328 26.4 170.128C26.4223 174.522 26.8915 177.131 28.2543 180.563C31.047 187.565 36.7441 192.508 45.6584 195.666C50.4171 197.341 54.9748 198 61.6549 198C69.9436 198 74.7471 197.368 88.2414 194.54C98.6972 192.343 105.735 191.108 110.806 190.558C114.85 190.147 125.351 190.119 128.233 190.558C135.181 191.602 140.454 193.387 146.53 196.792C148.787 198.082 149.345 198.137 149.345 197.176C149.345 195.886 145.034 191.876 141.213 189.652C135.449 186.275 129.819 184.517 122.156 183.721C115.632 183.034 103.21 183.584 91.4362 185.094C74.8811 187.208 72.6246 187.401 64.8945 187.401C55.6674 187.428 51.5342 186.796 46.7531 184.682C40.8773 182.073 36.8558 177.543 36.5654 173.149C36.4313 171.254 36.8111 169.771 37.9282 167.739C39.6485 164.609 42.8434 162.055 45.8371 161.424L47.4681 161.094L48.2947 162.302C50.4395 165.378 54.6397 167.41 61.3198 168.618C65.5647 169.36 70.6139 169.689 78.7462 169.744C86.0519 169.799 90.3191 170.019 93.9384 170.54C96.0162 170.842 100.596 171.941 101.378 172.325C102.115 172.71 101.78 171.446 100.73 170.019C100.038 169.085 99.1887 168.316 98.1163 167.657C97.2226 167.135 96.6418 166.696 96.8205 166.696C96.9992 166.696 98.7419 167.63 100.686 168.783C103.344 170.376 104.35 170.842 104.774 170.705C105.087 170.595 105.333 170.403 105.333 170.238C105.333 169.799 104.506 168.371 103.456 166.998C102.629 165.955 102.607 165.845 103.098 166.009C103.411 166.119 104.595 166.751 105.757 167.41C107.991 168.701 108.46 168.838 108.46 168.261C108.46 167.575 107.098 165.35 106.003 164.225C103.88 162.055 101.244 161.122 96.1726 160.792C93.6927 160.627 91.2351 160.792 84.2869 161.506C82.4772 161.698 80.9357 161.781 80.8463 161.671C80.7569 161.588 81.1814 160.792 81.7846 159.941C84.8008 155.685 86.8338 151.456 87.6828 147.694C89.7606 138.248 87.6828 129.818 81.3825 122.321C78.1877 118.504 74.5907 116.005 71.016 115.072L69.0276 114.578L70.3681 114.55C73.3842 114.495 77.6961 115.923 80.6452 117.955C82.6783 119.356 85.404 121.882 86.5434 123.474C88.6658 126.385 90.2968 130.147 91.3021 134.431C91.749 136.353 91.816 137.204 91.7937 141.433C91.7937 145.882 91.749 146.431 91.1681 148.71C90.833 150.055 90.0734 152.389 89.4478 153.872C88.5318 156.097 88.4201 156.591 88.7105 156.728C89.3137 157.003 93.7821 155.52 96.7758 154.065C100.194 152.389 105.936 148.875 108.148 147.145C109.689 145.936 110.494 144.893 110.873 143.657C111.007 143.19 111.275 143.547 112.638 146.046C115.476 151.291 118.38 154.971 123.251 159.474C129.193 164.993 136.857 170.54 138.487 170.54C139.247 170.54 139.225 170.238 138.309 168.398C137.884 167.52 137.46 166.504 137.37 166.064C137.236 165.35 137.37 165.405 140.498 167.657C142.308 168.948 143.872 169.991 143.983 169.991C144.095 169.991 144.252 169.689 144.341 169.332C144.475 168.618 144.05 167.41 143.134 165.927L142.576 165.021L143.157 165.296C143.939 165.652 146.128 167.053 147.29 167.932C148.139 168.591 148.228 168.618 148.228 168.151C148.228 167.849 147.983 166.998 147.67 166.229C146.262 162.769 142.822 160.435 137.661 159.419C136.499 159.199 135.203 158.815 134.779 158.623C132.366 157.36 129.461 150.522 128.143 142.943C127.652 140.17 127.473 135.008 127.808 133.332C127.898 132.921 128.612 131.383 129.417 129.927C130.221 128.472 132.165 124.051 133.751 120.124C135.628 115.429 136.901 112.6 137.415 111.941C138.957 109.992 140.9 109.195 145.279 108.756C152.317 108.042 159.533 105.955 163.465 103.511C164.381 102.935 164.761 102.825 164.761 103.072C164.761 103.292 164.404 105.598 163.979 108.234C162.795 115.319 162.348 118.642 162.527 118.642C162.594 118.642 162.773 118.23 162.907 117.735C164.136 113.205 168.202 100.299 168.537 99.8866C168.939 99.3923 169.006 99.5571 171.151 107.438C172.357 111.859 173.385 115.291 173.407 115.072C173.474 114.715 171.464 99.0903 171.128 97.3603C171.084 97.0583 171.128 96.6464 171.218 96.4267C171.486 95.905 171.62 96.0423 175.775 100.738C180.11 105.681 181.495 106.971 180.869 105.488C180.624 104.967 177.027 99.31 174.748 95.905L173.43 93.9553L174.033 92.4176C174.904 90.2483 174.725 89.4245 172.96 87.4749C170.324 84.5367 155.355 70.9991 151.267 67.8961C146.575 64.2989 142.241 61.7726 135.873 58.9168C134.935 58.5049 134.801 58.3676 134.935 57.8459C135.806 54.4684 135.941 52.2441 135.404 49.1412C134.086 41.5623 127.562 36.2901 121.731 38.0749ZM143.09 73.0036C144.453 74.2393 144.81 77.0127 143.805 78.7427C141.95 81.9555 137.862 80.253 137.862 76.2713C137.862 72.8114 140.811 70.9716 143.09 73.0036Z" fill="#EB8153"/>
<path d="M142.799 49.361C142.732 49.4983 142.621 50.377 142.554 51.3656C142.353 53.6996 142.531 53.8918 145.369 54.6607C151.58 56.3083 156.852 60.7018 161.186 67.8413C163.197 71.164 163.845 71.7132 165.945 71.9054C167.531 72.0427 167.554 71.9328 166.325 68.7475C164.359 63.5851 160.941 58.56 157.366 55.5669C155.244 53.782 151.401 51.2832 149.658 50.5418C147.022 49.4159 143.09 48.7569 142.799 49.361Z" fill="#EB8153"/>
</svg>
