<svg width="188" height="188" viewBox="0 0 188 188" fill="none" xmlns="http://www.w3.org/2000/svg">
<circle cx="94" cy="94" r="94" fill="#EB8153"/>
<path d="M118.248 11.6526C118.077 11.9342 117.981 12.732 117.981 14.2338C117.981 16.2988 118.019 16.463 118.478 17.0497C118.936 17.6128 119.165 17.6832 121.341 17.8709C128.386 18.528 133.026 20.0063 138.791 23.4792C146.123 27.9142 152.098 34.3907 156.642 42.8617C159.468 48.118 161.988 55.4627 162.923 61.1414C163.611 65.3182 163.763 67.876 163.649 73.2731C163.572 77.051 163.611 78.4589 163.782 78.7405C164.126 79.3037 168.25 79.7261 168.651 79.2333C169.109 78.6467 169.357 72.1936 169.09 67.829C168.575 59.4753 167.085 52.8346 164.069 45.5368C161.491 39.2715 158.685 34.4611 154.828 29.6976C149.234 22.7752 143.392 18.1525 136.195 14.9612C132.224 13.1778 128.768 12.2392 124.014 11.6291C120.31 11.1598 118.573 11.1598 118.248 11.6526Z" fill="white"/>
<path d="M120.807 27.2572C120.425 27.8203 120.616 31.129 121.074 31.8799C121.494 32.5604 121.532 32.5838 125.141 33.2174C130.849 34.2264 137.092 37.934 141.311 42.8148C143.106 44.9032 145.244 48.0007 146.676 50.6288C149.12 55.0873 150.857 61.1414 151.22 66.5619L151.354 68.4861L152.041 68.6269C152.423 68.6973 153.435 68.7677 154.313 68.7677H155.878V65.9987C155.878 62.6901 155.668 61.024 154.924 58.1613C153.015 50.8869 148.394 42.5567 143.564 37.582C138.81 32.7246 132.491 28.8997 127.05 27.5857C124.701 27.0225 121.093 26.8348 120.807 27.2572Z" fill="white"/>
<path d="M104.025 32.5367C102.784 32.9122 100.569 34.3905 100.226 35.0945C100.073 35.423 100.149 35.5873 100.588 36.0096C102.173 37.4176 103.471 38.8959 104.33 40.21C105.629 42.2045 107.137 45.959 107.481 48.0709C107.786 49.8543 107.862 52.9517 107.633 54.5474C107.519 55.4391 107.519 55.4391 106.755 55.3218C106.335 55.2514 105.934 55.0636 105.858 54.9229C105.781 54.7821 105.667 53.6322 105.61 52.3886C105.4 48.681 104.636 46.0294 102.918 43.2605C99.3665 37.488 93.3144 35.4934 88.5987 38.5439C86.9759 39.5999 85.2576 41.7587 84.5321 43.6594C83.7303 45.7478 83.4439 47.3904 83.463 49.8778C83.5012 54.1954 85.0094 57.7387 88.045 60.5546C88.7133 61.1881 89.1906 61.7513 89.1142 61.7983C89.0378 61.8686 88.446 62.1033 87.8159 62.3145C85.8686 62.995 80.6756 63.0419 76.6472 62.4318C69.7741 61.4228 65.8794 61.5871 60.9155 63.1358C47.1503 67.43 36.3443 82.1429 33.5187 100.446C32.5832 106.524 32.4878 114.643 33.2896 120.368L33.7096 123.301L32.125 125.061C26.9129 130.904 24.3737 135.222 23.0755 140.502C22.6364 142.262 22.56 142.989 22.56 145.382C22.5791 149.137 22.98 151.366 24.1446 154.299C26.5311 160.283 31.3995 164.507 39.0172 167.205C43.0837 168.637 46.9785 169.2 52.6869 169.2C59.77 169.2 63.8748 168.66 75.4062 166.243C84.3412 164.366 90.3552 163.31 94.689 162.841C98.1446 162.489 107.118 162.465 109.581 162.841C115.518 163.732 120.024 165.258 125.217 168.167C127.145 169.27 127.622 169.317 127.622 168.496C127.622 167.393 123.938 163.967 120.673 162.066C115.747 159.18 110.936 157.678 104.388 156.998C98.8129 156.411 88.1978 156.881 78.1364 158.171C63.9893 159.978 62.061 160.142 55.4553 160.142C47.5703 160.166 44.0383 159.626 39.9527 157.819C34.9315 155.59 31.495 151.718 31.2468 147.964C31.1322 146.345 31.4568 145.077 32.4114 143.341C33.8815 140.666 36.6116 138.484 39.1699 137.944L40.5636 137.662L41.27 138.695C43.1028 141.323 46.6921 143.059 52.4006 144.092C56.028 144.725 60.3428 145.007 67.2922 145.054C73.5352 145.101 77.1818 145.289 80.2747 145.734C82.0502 145.993 85.964 146.931 86.6323 147.26C87.2623 147.588 86.9759 146.509 86.0786 145.289C85.4867 144.491 84.7613 143.834 83.8448 143.271C83.0812 142.825 82.5848 142.449 82.7375 142.449C82.8902 142.449 84.3794 143.247 86.0404 144.233C88.3123 145.594 89.1715 145.993 89.5342 145.875C89.8015 145.781 90.0115 145.617 90.0115 145.476C90.0115 145.101 89.3051 143.881 88.4078 142.707C87.7014 141.816 87.6823 141.722 88.1023 141.863C88.3696 141.956 89.3815 142.496 90.3743 143.059C92.2834 144.162 92.6844 144.28 92.6844 143.787C92.6844 143.2 91.5198 141.299 90.5843 140.337C88.7705 138.484 86.5177 137.686 82.1839 137.404C80.0647 137.263 77.9646 137.404 72.027 138.014C70.4805 138.179 69.1632 138.249 69.0868 138.155C69.0105 138.085 69.3732 137.404 69.8887 136.677C72.4661 133.04 74.2035 129.426 74.9289 126.211C76.7045 118.139 74.9289 110.935 69.545 104.529C66.8149 101.267 63.7411 99.1319 60.6864 98.3341L58.9873 97.9117L60.1328 97.8882C62.7102 97.8413 66.3949 99.0615 68.915 100.798C70.6524 101.995 72.9816 104.154 73.9553 105.515C75.769 108.002 77.1627 111.217 78.0218 114.877C78.4037 116.52 78.4609 117.247 78.4418 120.861C78.4418 124.662 78.4037 125.132 77.9073 127.079C77.6209 128.229 76.9718 130.224 76.4372 131.491C75.6544 133.392 75.559 133.814 75.8072 133.931C76.3227 134.166 80.141 132.899 82.6993 131.655C85.6204 130.224 90.527 127.22 92.4171 125.742C93.7344 124.709 94.4217 123.818 94.7463 122.762C94.8608 122.363 95.0899 122.668 96.2545 124.803C98.6792 129.285 101.161 132.429 105.323 136.278C110.402 140.994 116.95 145.734 118.344 145.734C118.993 145.734 118.974 145.476 118.191 143.904C117.828 143.153 117.466 142.285 117.389 141.91C117.275 141.299 117.389 141.346 120.062 143.271C121.609 144.373 122.945 145.265 123.04 145.265C123.136 145.265 123.27 145.007 123.346 144.702C123.46 144.092 123.098 143.059 122.315 141.792L121.838 141.018L122.334 141.253C123.002 141.558 124.873 142.754 125.866 143.505C126.591 144.068 126.668 144.092 126.668 143.693C126.668 143.435 126.458 142.707 126.191 142.05C124.988 139.094 122.048 137.099 117.637 136.231C116.645 136.043 115.537 135.715 115.175 135.55C113.113 134.471 110.631 128.628 109.504 122.152C109.084 119.782 108.932 115.37 109.218 113.939C109.294 113.587 109.905 112.273 110.593 111.029C111.28 109.785 112.941 106.007 114.296 102.652C115.9 98.6391 116.988 96.2222 117.427 95.659C118.745 93.9929 120.406 93.3124 124.148 92.937C130.162 92.3269 136.328 90.5435 139.689 88.4551C140.471 87.9623 140.796 87.8684 140.796 88.0796C140.796 88.2674 140.49 90.2385 140.128 92.4912C139.116 98.5453 138.734 101.385 138.887 101.385C138.944 101.385 139.097 101.033 139.211 100.61C140.261 96.7384 143.736 85.7096 144.022 85.3576C144.366 84.9353 144.423 85.076 146.256 91.8107C147.287 95.5886 148.165 98.5218 148.184 98.3341C148.242 98.029 146.523 84.6771 146.237 83.1988C146.199 82.9407 146.237 82.5887 146.313 82.401C146.542 81.9551 146.657 82.0725 150.208 86.0851C153.912 90.3089 155.096 91.4117 154.561 90.1446C154.351 89.6988 151.277 84.8649 149.33 81.9551L148.203 80.2891L148.719 78.975C149.464 77.1212 149.311 76.4173 147.803 74.7512C145.55 72.2404 132.758 60.6719 129.264 58.0203C125.255 54.9463 121.551 52.7875 116.11 50.3471C115.308 49.9951 115.194 49.8778 115.308 49.4319C116.053 46.5457 116.167 44.645 115.709 41.9933C114.583 35.5169 109.008 31.0115 104.025 32.5367ZM122.277 62.3849C123.441 63.4408 123.747 65.8109 122.888 67.2892C121.303 70.0346 117.809 68.5798 117.809 65.1773C117.809 62.2206 120.329 60.6484 122.277 62.3849Z" fill="white"/>
<path d="M122.029 42.1812C121.971 42.2986 121.876 43.0494 121.819 43.8942C121.647 45.8888 121.799 46.053 124.224 46.7101C129.532 48.118 134.037 51.8725 137.741 57.9735C139.459 60.8129 140.013 61.2822 141.808 61.4464C143.163 61.5637 143.182 61.4699 142.132 58.7479C140.452 54.3364 137.531 50.0422 134.476 47.4844C132.663 45.9592 129.379 43.8238 127.89 43.1902C125.637 42.2282 122.277 41.665 122.029 42.1812Z" fill="white"/>
</svg>
