<svg width="50" height="50" viewBox="0 0 50 50" fill="none" xmlns="http://www.w3.org/2000/svg">
<circle cx="25" cy="25" r="25" fill="#EB8153"/>
<path d="M31.449 3.09909C31.4033 3.17398 31.378 3.38617 31.378 3.78558C31.378 4.33478 31.3881 4.37846 31.51 4.53448C31.6318 4.68426 31.6928 4.70298 32.2716 4.75291C34.1453 4.92765 35.3791 5.32083 36.9126 6.24447C38.8624 7.42399 40.4517 9.14645 41.6601 11.3994C42.4116 12.7973 43.0819 14.7507 43.3307 16.261C43.5135 17.3719 43.5541 18.0521 43.5236 19.4875C43.5033 20.4923 43.5135 20.8667 43.5592 20.9416C43.6506 21.0914 44.7473 21.2037 44.854 21.0727C44.9758 20.9167 45.0418 19.2004 44.9707 18.0396C44.8337 15.8179 44.4376 14.0517 43.6353 12.1108C42.9499 10.4445 42.2034 9.16518 41.1778 7.89829C39.69 6.05724 38.1363 4.8278 36.222 3.97905C35.1659 3.50474 34.2468 3.25511 32.9825 3.09285C31.9974 2.96803 31.5354 2.96803 31.449 3.09909Z" fill="white"/>
<path d="M32.1294 7.24925C32.0279 7.39903 32.0787 8.27898 32.2005 8.47869C32.3122 8.65967 32.3224 8.66592 33.2821 8.83442C34.8003 9.10277 36.4606 10.0888 37.5828 11.3869C38.0601 11.9424 38.6288 12.7661 39.0096 13.4651C39.6595 14.6509 40.1216 16.261 40.2181 17.7026L40.2536 18.2144L40.4364 18.2518C40.538 18.2706 40.8071 18.2893 41.0407 18.2893H41.457V17.5529C41.457 16.6729 41.4012 16.2298 41.2031 15.4684C40.6954 13.5338 39.4666 11.3183 38.182 9.99521C36.9176 8.70336 35.2369 7.6861 33.7898 7.33662C33.1653 7.18684 32.2056 7.13691 32.1294 7.24925Z" fill="white"/>
<path d="M27.6662 8.65339C27.3362 8.75324 26.7472 9.14642 26.6558 9.33364C26.6151 9.42101 26.6354 9.4647 26.7522 9.57703C27.1737 9.95148 27.519 10.3447 27.7474 10.6941C28.0927 11.2246 28.4939 12.2231 28.5853 12.7848C28.6665 13.2591 28.6868 14.0829 28.6259 14.5073C28.5954 14.7444 28.5954 14.7444 28.3923 14.7132C28.2806 14.6945 28.174 14.6446 28.1537 14.6071C28.1333 14.5697 28.1029 14.2639 28.0876 13.9331C28.0318 12.9471 27.8287 12.2419 27.3717 11.5055C26.4273 9.97021 24.8177 9.43974 23.5635 10.251C23.1319 10.5319 22.6749 11.106 22.482 11.6115C22.2687 12.167 22.1925 12.6038 22.1976 13.2654C22.2078 14.4137 22.6089 15.356 23.4162 16.1049C23.594 16.2734 23.7209 16.4232 23.7006 16.4357C23.6803 16.4544 23.5229 16.5168 23.3553 16.573C22.8374 16.754 21.4563 16.7665 20.3849 16.6042C18.557 16.3359 17.5211 16.3795 16.2009 16.7914C12.54 17.9335 9.66604 21.8465 8.91455 26.7144C8.66575 28.3307 8.64036 30.4901 8.85362 32.0128L8.96533 32.7929L8.54389 33.261C7.1577 34.815 6.48237 35.9633 6.1371 37.3675C6.02031 37.8355 6 38.029 6 38.6655C6.00508 39.6641 6.11171 40.257 6.42144 41.0371C7.05615 42.6285 8.35094 43.7518 10.3769 44.4695C11.4584 44.8502 12.4943 45 14.0125 45C15.8963 45 16.988 44.8565 20.0549 44.2136C22.4312 43.7144 24.0306 43.4335 25.1833 43.3087C26.1023 43.2151 28.4888 43.2089 29.1438 43.3087C30.7229 43.5459 31.9213 43.9515 33.3024 44.7254C33.8152 45.0187 33.9421 45.0312 33.9421 44.8128C33.9421 44.5194 32.9622 43.6083 32.0939 43.1028C30.7839 42.3352 29.5043 41.9357 27.7627 41.7548C26.28 41.5987 23.4569 41.7236 20.781 42.0668C17.0184 42.5473 16.5056 42.591 14.7487 42.591C12.6517 42.5973 11.7123 42.4537 10.6257 41.9732C9.2903 41.3803 8.37633 40.3506 8.31032 39.352C8.27985 38.9214 8.36617 38.5844 8.62005 38.1226C9.01103 37.4111 9.73713 36.8307 10.4175 36.6872L10.7882 36.6123L10.9761 36.8869C11.4635 37.5859 12.4181 38.0477 13.9363 38.3223C14.9011 38.4908 16.0486 38.5657 17.8969 38.5782C19.5572 38.5907 20.5271 38.6406 21.3496 38.7592C21.8219 38.8278 22.8628 39.0774 23.0405 39.1648C23.2081 39.2522 23.1319 38.9651 22.8932 38.6406C22.7358 38.4284 22.5429 38.2537 22.2992 38.1039C22.0961 37.9853 21.964 37.8854 22.0047 37.8854C22.0453 37.8854 22.4413 38.0976 22.8831 38.3597C23.4873 38.7217 23.7158 38.8278 23.8123 38.7966C23.8834 38.7716 23.9392 38.728 23.9392 38.6905C23.9392 38.5907 23.7514 38.2661 23.5127 37.9541C23.3248 37.7169 23.3198 37.692 23.4315 37.7294C23.5026 37.7544 23.7717 37.8979 24.0357 38.0477C24.5435 38.341 24.6501 38.3722 24.6501 38.2412C24.6501 38.0852 24.3404 37.5796 24.0916 37.3238C23.6092 36.8307 23.01 36.6186 21.8574 36.5437C21.2938 36.5062 20.7353 36.5437 19.1561 36.7059C18.7448 36.7496 18.3945 36.7683 18.3742 36.7434C18.3539 36.7247 18.4503 36.5437 18.5874 36.3502C19.2729 35.3829 19.735 34.4218 19.9279 33.5668C20.4001 31.4199 19.9279 29.504 18.496 27.8003C17.7699 26.9328 16.9524 26.3649 16.14 26.1527L15.6881 26.0403L15.9928 26.0341C16.6782 26.0216 17.6582 26.3461 18.3285 26.808C18.7905 27.1263 19.41 27.7004 19.669 28.0624C20.1513 28.7239 20.522 29.5789 20.7505 30.5525C20.852 30.9893 20.8673 31.1828 20.8622 32.1439C20.8622 33.1549 20.852 33.2797 20.72 33.7977C20.6439 34.1035 20.4712 34.634 20.329 34.971C20.1209 35.4765 20.0955 35.5888 20.1615 35.62C20.2986 35.6824 21.3141 35.3454 21.9945 35.0147C22.7714 34.634 24.0763 33.8351 24.579 33.442C24.9294 33.1674 25.1122 32.9302 25.1985 32.6494C25.2289 32.5433 25.2899 32.6244 25.5996 33.1923C26.2445 34.3843 26.9046 35.2206 28.0115 36.2441C29.3621 37.4985 31.1038 38.7592 31.4744 38.7592C31.6471 38.7592 31.642 38.6905 31.4338 38.2724C31.3373 38.0727 31.2409 37.8418 31.2205 37.7419C31.1901 37.5796 31.2205 37.5921 31.9314 38.1039C32.3427 38.3972 32.6981 38.6343 32.7235 38.6343C32.7489 38.6343 32.7844 38.5657 32.8048 38.4846C32.8352 38.3223 32.7387 38.0477 32.5306 37.7107L32.4036 37.5048L32.5356 37.5672C32.7134 37.6483 33.211 37.9666 33.475 38.1663C33.668 38.3161 33.6883 38.3223 33.6883 38.2162C33.6883 38.1476 33.6324 37.9541 33.5613 37.7794C33.2414 36.993 32.4595 36.4625 31.2866 36.2316C31.0225 36.1817 30.728 36.0943 30.6315 36.0506C30.0832 35.7636 29.4231 34.2096 29.1235 32.4871C29.0118 31.8568 28.9712 30.6835 29.0473 30.3028C29.0676 30.2092 29.2301 29.8597 29.4129 29.529C29.5957 29.1982 30.0375 28.1934 30.398 27.301C30.8245 26.2338 31.1139 25.591 31.2307 25.4412C31.5811 24.9981 32.0228 24.8171 33.018 24.7173C34.6175 24.555 36.2575 24.0807 37.1512 23.5253C37.3594 23.3942 37.4457 23.3693 37.4457 23.4254C37.4457 23.4754 37.3645 23.9996 37.268 24.5987C36.9989 26.2088 36.8973 26.964 36.9379 26.964C36.9532 26.964 36.9938 26.8704 37.0243 26.758C37.3035 25.7283 38.2277 22.7951 38.3038 22.7015C38.3952 22.5892 38.4105 22.6266 38.8979 24.4177C39.1721 25.4225 39.4057 26.2026 39.4107 26.1527C39.426 26.0716 38.969 22.5205 38.8928 22.1273C38.8827 22.0587 38.8928 21.9651 38.9131 21.9152C38.9741 21.7966 39.0045 21.8278 39.949 22.895C40.934 24.0183 41.2488 24.3116 41.1067 23.9746C41.0508 23.8561 40.2333 22.5704 39.7154 21.7966L39.4158 21.3535L39.5529 21.004C39.7509 20.511 39.7103 20.3237 39.3092 19.8806C38.71 19.2129 35.308 16.1361 34.3788 15.4309C33.3125 14.6134 32.3275 14.0392 30.8803 13.3902C30.6671 13.2966 30.6366 13.2654 30.6671 13.1468C30.8651 12.3792 30.8956 11.8737 30.7737 11.1684C30.4741 9.44598 28.9915 8.24774 27.6662 8.65339ZM32.5204 16.5917C32.8301 16.8726 32.9114 17.5029 32.6829 17.8961C32.2615 18.6262 31.3322 18.2393 31.3322 17.3344C31.3322 16.548 32.0025 16.1299 32.5204 16.5917Z" fill="white"/>
<path d="M32.4544 11.2184C32.4392 11.2496 32.4138 11.4493 32.3986 11.674C32.3529 12.2045 32.3935 12.2481 33.0383 12.4229C34.4499 12.7973 35.6482 13.7959 36.6333 15.4185C37.0903 16.1736 37.2375 16.2984 37.7148 16.3421C38.0753 16.3733 38.0804 16.3484 37.8011 15.6244C37.3543 14.4512 36.5774 13.3091 35.765 12.6288C35.2826 12.2232 34.4093 11.6553 34.0132 11.4868C33.4141 11.2309 32.5204 11.0811 32.4544 11.2184Z" fill="white"/>
</svg>
